<?xml version="1.0" encoding="UTF-8" standalone="no"?>
<svg
   xmlns:dc="http://purl.org/dc/elements/1.1/"
   xmlns:cc="http://creativecommons.org/ns#"
   xmlns:rdf="http://www.w3.org/1999/02/22-rdf-syntax-ns#"
   xmlns:svg="http://www.w3.org/2000/svg"
   xmlns="http://www.w3.org/2000/svg"
   xmlns:sodipodi="http://sodipodi.sourceforge.net/DTD/sodipodi-0.dtd"
   xmlns:inkscape="http://www.inkscape.org/namespaces/inkscape"
   sodipodi:docname="splash.svg"
   inkscape:version="1.0 (4035a4fb49, 2020-05-01)"
   id="svg8"
   version="1.1"
   viewBox="0 0 84.666665 52.916668"
   height="200"
   width="320">
  <defs
     id="defs2" />
  <sodipodi:namedview
     inkscape:window-maximized="1"
     inkscape:window-y="1072"
     inkscape:window-x="-8"
     inkscape:window-height="1017"
     inkscape:window-width="1920"
     units="px"
     showgrid="false"
     inkscape:document-rotation="0"
     inkscape:current-layer="layer1"
     inkscape:document-units="px"
     inkscape:cy="108"
     inkscape:cx="153"
     inkscape:zoom="2.6978723"
     inkscape:pageshadow="2"
     inkscape:pageopacity="0"
     borderopacity="1.0"
     bordercolor="#666666"
     pagecolor="#000000"
     id="base" />
  <metadata
     id="metadata5">
    <rdf:RDF>
      <cc:Work
         rdf:about="">
        <dc:format>image/svg+xml</dc:format>
        <dc:type
           rdf:resource="http://purl.org/dc/dcmitype/StillImage" />
        <dc:title></dc:title>
      </cc:Work>
    </rdf:RDF>
  </metadata>
  <g
     id="layer1"
     inkscape:groupmode="layer"
     inkscape:label="Lager 1">
    <g
       style="font-style:normal;font-variant:normal;font-weight:normal;font-stretch:normal;font-size:15.5319px;line-height:1.25;font-family:'Franklin Gothic Demi Cond';-inkscape-font-specification:'Franklin Gothic Demi Cond';letter-spacing:0px;word-spacing:0px;fill:#000000;fill-opacity:1;stroke:none;stroke-width:0.970745"
       id="text835"
       aria-label="GET OUT">
      <path
         id="path837"
         style="font-style:normal;font-variant:normal;font-weight:normal;font-stretch:normal;font-family:'Eras Bold ITC';-inkscape-font-specification:'Eras Bold ITC';fill:#ffffff;stroke-width:0.970745"
         d="m 13.029006,13.405715 q 1.038999,0.01517 1.979407,0.01517 1.607794,0 2.517867,-0.01517 -0.09859,1.038999 -0.204767,2.942567 -0.09859,1.903568 -0.121343,2.874312 -0.872152,0.159262 -1.448531,0.227518 -0.568796,0.07584 -1.372693,0.128927 -0.803897,0.06067 -1.433364,0.06067 -1.031415,0 -2.02491,-0.166846 Q 9.927176,19.306017 9.1384467,18.934404 8.3573013,18.562791 7.8340097,17.925741 7.3107182,17.28869 7.0225286,16.416537 6.741923,15.544385 6.741923,14.611561 q 0,-1.539539 0.7659775,-2.859144 Q 8.273878,10.432812 9.7072419,9.6668346 11.14819,8.8932731 13.42337,8.8932731 q 1.660882,0 3.678209,0.4019486 0,1.1072543 0.09859,2.4647793 -0.546043,-0.182015 -0.88732,-0.273022 -0.333693,-0.09859 -0.788729,-0.17443 -0.447453,-0.08342 -0.856985,-0.121343 -0.401949,-0.03792 -0.720474,-0.03792 -0.834233,0 -1.577459,0.242686 -0.743225,0.235102 -1.281685,0.735642 -0.530875,0.492956 -0.796313,1.183094 -0.265438,0.690138 -0.265438,1.456115 0,0.781146 0.303358,1.395445 0.303357,0.606714 0.963159,0.92524 0.659803,0.318525 1.471284,0.318525 0.67497,0 1.478867,-0.197182 l 0.08342,-1.645714 q -0.492956,-0.02275 -0.583963,-0.02275 l -0.803898,0.0076 0.05309,-0.932824 q 0.0076,-0.151679 0.02275,-0.432285 0.01517,-0.288189 0.01517,-0.781145 z" />
      <path
         id="path839"
         style="font-style:normal;font-variant:normal;font-weight:normal;font-stretch:normal;font-family:'Eras Bold ITC';-inkscape-font-specification:'Eras Bold ITC';fill:#ffffff;stroke-width:0.970745"
         d="m 19.065819,19.442528 q 0.189598,-1.956656 0.273021,-3.27626 0.09101,-1.319605 0.174431,-3.503779 0.09101,-2.191757 0.09101,-2.9046472 l -0.0076,-0.6673863 q 1.789809,0.015168 4.330428,0.015168 2.343436,0 4.133245,-0.015168 l -0.01517,0.2502699 q -0.0076,0.091007 -0.03792,0.6598026 l -0.0455,0.826649 q -0.01517,0.265438 -0.01517,0.538459 -1.4637,-0.06067 -2.457196,-0.06067 -1.092086,0 -1.478867,0.0076 -0.379197,0 -1.190678,0.03033 l -0.09101,1.736722 q 0.894904,0.02275 2.085582,0.02275 0.4247,0 2.260013,-0.05309 -0.07584,0.970744 -0.144095,2.3131 -1.312021,-0.01517 -2.017327,-0.01517 -1.046583,0 -2.343436,0.05309 l -0.09101,1.842896 h 0.872152 q 0.386781,0 1.600211,-0.02275 l 1.569875,-0.03792 q 0.348861,-0.0076 1.167926,-0.06067 -0.09101,1.122423 -0.151679,2.320685 -1.85048,-0.01517 -4.057406,-0.01517 l -3.336931,0.0076 z" />
      <path
         id="path841"
         style="font-style:normal;font-variant:normal;font-weight:normal;font-stretch:normal;font-family:'Eras Bold ITC';-inkscape-font-specification:'Eras Bold ITC';fill:#ffffff;stroke-width:0.970745"
         d="m 31.632401,19.442528 q 0.379197,-3.685793 0.455036,-8.114811 l -3.230756,0.08342 0.03792,-0.841817 q 0.03034,-0.6749703 0.0455,-1.4788675 2.153838,0.015168 5.020565,0.015168 l 1.873232,-0.00758 h 1.820145 l 0.985912,-0.00758 -0.0455,0.7356417 q -0.03034,0.5915468 -0.0455,0.9783278 -0.0076,0.386781 -0.0076,0.583963 -1.622962,-0.07584 -2.677129,-0.07584 h -0.530875 q -0.113759,1.342356 -0.174431,2.479947 -0.08342,1.630546 -0.128927,3.170085 -0.0455,1.531955 -0.0455,2.479947 -1.243766,-0.01517 -1.607795,-0.01517 -0.326109,0 -1.744305,0.01517 z" />
      <path
         id="path843"
         style="font-style:normal;font-variant:normal;font-weight:normal;font-stretch:normal;font-family:'Eras Bold ITC';-inkscape-font-specification:'Eras Bold ITC';fill:#ffffff;stroke-width:0.970745"
         d="m 49.333308,8.8932731 q 1.213429,0 2.335852,0.3261093 1.122422,0.3261092 1.964239,1.0465836 0.841817,0.712889 1.258934,1.645714 0.417116,0.932824 0.417116,2.146253 0,1.274102 -0.46262,2.343437 -0.455036,1.061751 -1.319605,1.804976 -0.864569,0.743226 -2.06283,1.092087 -1.198262,0.341277 -2.495115,0.341277 -1.281685,0 -2.457195,-0.333693 -1.175511,-0.341277 -2.047663,-1.092087 -0.864569,-0.758393 -1.228598,-1.683634 -0.364029,-0.92524 -0.364029,-2.055246 0,-1.660882 0.765978,-2.912231 0.773561,-1.258934 2.282765,-1.9642398 1.516787,-0.7053061 3.412771,-0.7053061 z m -0.136511,2.2827649 q -0.872153,0 -1.577459,0.432284 -0.705306,0.424701 -1.084503,1.190678 -0.379196,0.758394 -0.379196,1.630546 0,0.803897 0.341277,1.471284 0.348861,0.667386 1.054167,1.046583 0.705306,0.371613 1.494035,0.371613 0.841817,0 1.539539,-0.417117 0.705306,-0.4247 1.069335,-1.183094 0.371613,-0.765977 0.371613,-1.60021 0,-0.811481 -0.341277,-1.494035 -0.341277,-0.690139 -1.00108,-1.069335 -0.659802,-0.379197 -1.486451,-0.379197 z" />
      <path
         id="path845"
         style="font-style:normal;font-variant:normal;font-weight:normal;font-stretch:normal;font-family:'Eras Bold ITC';-inkscape-font-specification:'Eras Bold ITC';fill:#ffffff;stroke-width:0.970745"
         d="m 56.993079,9.0904555 q 1.183094,0.015168 1.668466,0.015168 0.606715,0 1.615379,-0.015168 l -0.227518,3.2231725 q -0.06826,0.910072 -0.106176,1.706386 -0.03034,0.796313 -0.03034,1.09967 0,0.57638 0.08342,0.96316 0.08342,0.386781 0.303357,0.659803 0.219935,0.265437 0.606715,0.401948 0.394365,0.136511 0.819065,0.136511 0.364029,0 0.682555,-0.08342 0.250269,-0.06826 0.447452,-0.189599 0.17443,-0.113759 0.303357,-0.265437 0.159263,-0.182015 0.280606,-0.455036 0.121343,-0.257854 0.182014,-0.667387 0.06826,-0.417116 0.182015,-1.895984 0.09859,-1.258933 0.151678,-2.305516 0.0455,-1.016248 0.08342,-2.3282685 1.145174,0.015168 1.804976,0.015168 l 1.539539,-0.015168 -0.371612,5.3845945 q -0.0076,0.151679 -0.0076,0.25027 -0.03034,1.577458 -0.197183,2.229677 -0.159262,0.644634 -0.538459,1.122422 -0.379197,0.477788 -1.107255,0.864569 -0.728058,0.379197 -1.653298,0.538459 -0.92524,0.159263 -1.873232,0.159263 -0.849401,0 -1.63813,-0.121343 -0.728058,-0.121343 -1.312021,-0.348861 -0.583963,-0.235102 -1.016247,-0.546043 -0.394365,-0.28819 -0.606715,-0.583963 -0.21235,-0.303358 -0.333693,-0.720474 -0.136511,-0.470204 -0.136511,-1.008664 0,-0.182014 0.01517,-0.546043 0.01517,-0.371613 0.06826,-1.061751 l 0.09859,-1.21343 q 0.03792,-0.477788 0.08342,-1.403028 z" />
      <path
         id="path847"
         style="font-style:normal;font-variant:normal;font-weight:normal;font-stretch:normal;font-family:'Eras Bold ITC';-inkscape-font-specification:'Eras Bold ITC';fill:#ffffff;stroke-width:0.970745"
         d="m 70.917187,19.442528 q 0.379197,-3.685793 0.455036,-8.114811 l -3.230756,0.08342 0.03792,-0.841817 q 0.03034,-0.6749703 0.0455,-1.4788675 2.153838,0.015168 5.020566,0.015168 l 1.873232,-0.00758 h 1.820144 l 0.985912,-0.00758 -0.0455,0.7356417 q -0.03033,0.5915468 -0.0455,0.9783278 -0.0076,0.386781 -0.0076,0.583963 -1.622963,-0.07584 -2.67713,-0.07584 h -0.530875 q -0.113759,1.342356 -0.174431,2.479947 -0.08342,1.630546 -0.128927,3.170085 -0.0455,1.531955 -0.0455,2.479947 -1.243766,-0.01517 -1.607795,-0.01517 -0.326109,0 -1.744305,0.01517 z" />
    </g>
  </g>
</svg>
